<?xml version="1.0" encoding="UTF-8" standalone="no"?>
<svg
   width="11.411111"
   height="10.445345"
   viewBox="0 0 102.7 82.692314"
   version="1.1"
   id="svg10"
   sodipodi:docname="nabla.svg"
   inkscape:export-filename="/home/herman/Dropbox/School/NTNU/master/report/figures/nabla.png"
   inkscape:export-xdpi="4206.4302"
   inkscape:export-ydpi="4206.4302"
   inkscape:version="1.1.1 (3bf5ae0d25, 2021-09-20)"
   xmlns:inkscape="http://www.inkscape.org/namespaces/inkscape"
   xmlns:sodipodi="http://sodipodi.sourceforge.net/DTD/sodipodi-0.dtd"
   xmlns="http://www.w3.org/2000/svg"
   xmlns:svg="http://www.w3.org/2000/svg">
  <defs
     id="defs14" />
  <sodipodi:namedview
     id="namedview12"
     pagecolor="#ffffff"
     bordercolor="#666666"
     borderopacity="1.0"
     inkscape:pageshadow="2"
     inkscape:pageopacity="0.0"
     inkscape:pagecheckerboard="0"
     showgrid="false"
     inkscape:snap-object-midpoints="true"
     inkscape:snap-center="true"
     inkscape:snap-page="true"
     inkscape:snap-intersection-paths="true"
     inkscape:zoom="30.033251"
     inkscape:cx="5.510559"
     inkscape:cy="8.6570716"
     inkscape:window-width="1680"
     inkscape:window-height="981"
     inkscape:window-x="0"
     inkscape:window-y="0"
     inkscape:window-maximized="1"
     inkscape:current-layer="svg10" />
  <style
     type="text/css"
     id="style2">
	.st0{fill:#000000;}
</style>
  <g
     id="g8"
     transform="translate(-3.9,-5.9578961)">
    <path
       class="st0"
       d="m 3.9,29.8 c 0.8,-1.6 1.5,-3.2 2.2,-4.8 1.5,-3.1 3.1,-6 5.4,-8.6 0.7,-0.7 1.4,-1.4 2.1,-2 0.9,-0.7 2,-0.9 3.1,-1 3.3,-0.2 6.7,-0.4 10,-0.3 9.2,0.3 18.4,0.8 27.6,1 6.3,0.2 12.6,0.1 19,0 3.7,-0.1 7.5,-0.4 11.2,-0.8 4.6,-0.4 8.5,-2.4 11.9,-5.6 2.5,-2.4 5.1,-4.6 8,-6.5 0.4,-0.3 0.9,-0.6 1.4,-0.8 0.2,-0.1 0.6,-0.1 0.8,-0.1 -0.1,0.3 0,0.6 -0.2,0.8 -0.6,0.8 -1.1,1.6 -1.8,2.3 -4.4,5.3 -8.6,10.6 -12.5,16.1 -4.3,6 -8.4,12.2 -12,18.6 -5.6,9.8 -10.3,20 -13.6,30.7 -0.9,3 -1.6,6 -2.3,9 -0.3,1.4 -1.1,2.6 -1.9,3.8 -3.1,4.3 -6.6,8.1 -10.7,11.4 -0.5,0.4 -1.1,0.8 -1.7,1.1 -0.7,0.4 -1,0.2 -1.4,-0.4 C 45.9,89.3 43.3,84.8 40.8,80.4 34.5,69.3 28.6,58 23.1,46.5 20.9,41.9 18.8,37.3 16.6,32.8 16.3,32.2 16,31.7 15.7,31.1 15.4,30.5 14.9,30.2 14.2,30 11.6,29.4 9,29.4 6.4,29.6 c -0.8,0 -1.6,0.1 -2.5,0.2 z m 31,-1.3 c 0.1,0.3 0.1,0.5 0.2,0.7 1,2.6 1.9,5.2 3,7.7 3.6,8.2 7.9,16 12.6,23.6 1.5,2.4 3.1,4.6 4.8,6.9 0.8,1.1 1.2,1 1.9,-0.1 0.9,-1.3 1.7,-2.6 2.4,-4 3.3,-6.5 6.4,-13 9.7,-19.4 2.6,-5.1 5.3,-10.1 8.6,-14.8 0.2,-0.3 0.4,-0.6 0.7,-1.1 -1.3,-0.1 -2.4,-0.3 -3.6,-0.3 -5.5,-0.1 -11.1,-0.3 -16.6,-0.2 -7,0.1 -14,0.4 -21.1,0.7 -0.8,0 -1.7,0.2 -2.6,0.3 z"
       id="path4" />
    <path
       class="st0"
       d="M 56.9,63.1 C 56.4,62.5 56,61.9 55.6,61.3 51.4,54.9 47.5,48.3 43.8,41.5 c -1.4,-2.7 -2.7,-5.4 -4,-8.2 -0.2,-0.4 -0.3,-0.9 -0.4,-1.4 -0.1,-0.5 0.1,-0.7 0.6,-0.8 0.8,-0.1 1.1,0 1.5,0.7 4,7.2 7.9,14.3 11.9,21.5 1.4,2.5 2.7,5 4.1,7.5 0.3,0.9 0.1,1.7 -0.6,2.3 z"
       id="path6" />
  </g>
</svg>
